<svg width="18" height="20" viewBox="0 0 18 20" fill="none" xmlns="http://www.w3.org/2000/svg">
<path d="M10.5085 11.4613L9.52364 14.1027C9.49464 14.1759 9.49464 14.2574 9.52364 14.3306L11.2148 18.8769L13.1719 17.7698L10.8243 11.4613C10.7702 11.3147 10.5625 11.3147 10.5085 11.4613ZM12.4778 7.01675C12.4238 6.87023 12.216 6.87023 12.1621 7.01675L11.1772 9.65819C11.1481 9.73139 11.1481 9.81296 11.1772 9.88617L13.9487 17.3303L15.9058 16.2232L12.4778 7.01675Z" fill="#F2ECE4"/>
<path d="M9 1.23324C9.04982 1.23324 9.09561 1.24544 9.14123 1.26985L16.6038 5.49049C16.6911 5.5393 16.7452 5.62885 16.7452 5.72655V14.1678C16.7452 14.2655 16.6911 14.355 16.6038 14.4038L9.14123 18.6286C9.09822 18.6531 9.04949 18.6657 9 18.6652C8.95018 18.6652 8.90439 18.653 8.85877 18.6286L1.40027 14.4079C1.31299 14.3591 1.25904 14.2695 1.25904 14.1719V5.72655C1.25904 5.62885 1.31299 5.5393 1.40027 5.49049L8.86289 1.26985C8.90463 1.24593 8.95189 1.23331 9 1.23324ZM9 0C8.73409 0 8.46811 0.0691782 8.23127 0.203493L0.768733 4.42414C0.294979 4.69277 0 5.18929 0 5.72655V14.1678C0 14.7051 0.294979 15.2057 0.768733 15.4743L8.23127 19.6949C8.46567 19.8279 8.73049 19.898 9 19.8984C9.26591 19.8984 9.53189 19.8293 9.76873 19.6949L17.2313 15.4743C17.7091 15.2057 18 14.7091 18 14.1678V5.72655C18 5.18929 17.705 4.68865 17.2313 4.4201L9.77285 0.203493C9.53189 0.0691782 9.26591 0 9 0Z" fill="#F2ECE4"/>
<path d="M4.06842 17.3384L4.75398 15.4988L6.1335 16.6221L4.84539 17.7779L4.06842 17.3384ZM8.37231 5.12415H6.4818C6.34049 5.12415 6.21162 5.20965 6.16591 5.33984L2.1106 16.2313L4.06772 17.3383L8.53445 5.34388C8.57184 5.23809 8.49278 5.12415 8.37231 5.12415Z" fill="#F2ECE4"/>
<path d="M11.6837 5.12415H9.7931C9.65179 5.12415 9.523 5.20965 9.47729 5.33984L4.8443 17.7778L6.80134 18.885L11.8416 5.348C11.8831 5.23809 11.8 5.12415 11.6837 5.12415Z" fill="#F2ECE4"/>
</svg>
