<svg width="20" height="17" viewBox="0 0 20 17" fill="none" xmlns="http://www.w3.org/2000/svg">
<path d="M16.8076 1.38129C15.5202 0.731217 14.1617 0.267246 12.7661 0.000948379C12.7535 -0.00139471 12.7405 0.000628936 12.7289 0.00674115C12.7174 0.0128534 12.7078 0.0227539 12.7016 0.0350815C12.5266 0.376413 12.333 0.822874 12.1978 1.1724C10.6934 0.92119 9.16316 0.92119 7.65876 1.1724C7.50788 0.783034 7.3372 0.403328 7.14752 0.0350815C7.14116 0.0228889 7.13159 0.0131024 7.12007 0.00700987C7.10855 0.000917294 7.09563 -0.00119583 7.083 0.000948379C5.68704 0.265822 4.32831 0.730032 3.04154 1.38129C3.03053 1.38592 3.02132 1.3946 3.01548 1.40587C0.441953 5.63701 -0.264092 9.76439 0.0821059 13.8399C0.0833467 13.859 0.0945144 13.8781 0.108164 13.8904C1.60677 15.1118 3.283 16.0444 5.06537 16.6484C5.07796 16.6527 5.09148 16.6526 5.10398 16.6479C5.11647 16.6432 5.12729 16.6343 5.13486 16.6224C5.51704 16.049 5.85704 15.4441 6.14988 14.8079C6.15598 14.7948 6.15807 14.7799 6.15584 14.7654C6.1536 14.7508 6.14716 14.7375 6.13747 14.7274C6.13106 14.7207 6.12345 14.7156 6.11513 14.7123C5.58053 14.4863 5.06276 14.2147 4.56655 13.9C4.55269 13.8913 4.54238 13.8771 4.53776 13.8604C4.53314 13.8436 4.53456 13.8255 4.54173 13.8099C4.54595 13.7997 4.55234 13.7908 4.56034 13.7839C4.66458 13.6979 4.76881 13.6078 4.86808 13.5177C4.87685 13.5099 4.88737 13.5049 4.89851 13.5032C4.90966 13.5016 4.92102 13.5032 4.93136 13.5081C8.18115 15.141 11.699 15.141 14.9091 13.5081C14.9198 13.503 14.9316 13.5012 14.9431 13.5029C14.9547 13.5046 14.9657 13.5097 14.9748 13.5177C15.0741 13.6078 15.1783 13.6979 15.2826 13.7839C15.291 13.7907 15.2978 13.7997 15.3023 13.8101C15.3068 13.8205 15.3089 13.8319 15.3084 13.8434C15.3079 13.8549 15.3049 13.8661 15.2995 13.876C15.2941 13.8858 15.2866 13.8941 15.2776 13.9C14.7825 14.2175 14.2641 14.4888 13.7278 14.711C13.7192 14.7144 13.7114 14.7198 13.705 14.7269C13.6986 14.734 13.6936 14.7425 13.6905 14.7519C13.6877 14.761 13.6865 14.7707 13.6872 14.7803C13.6878 14.79 13.6902 14.7993 13.6943 14.8079C13.9921 15.4428 14.3333 16.049 14.708 16.6224C14.7156 16.6343 14.7264 16.6432 14.7389 16.6479C14.7514 16.6526 14.7649 16.6527 14.7775 16.6484C16.5629 16.0463 18.2418 15.1136 19.7422 13.8904C19.7497 13.8847 19.7559 13.8772 19.7605 13.8684C19.765 13.8597 19.7676 13.8499 19.7682 13.8399C20.1827 9.12815 19.0746 5.0349 16.8324 1.40723C16.8301 1.40124 16.8267 1.39584 16.8225 1.39137C16.8182 1.3869 16.8131 1.38347 16.8076 1.38129ZM6.63505 11.3577C5.65602 11.3577 4.8507 10.3692 4.8507 9.15682C4.8507 7.94305 5.64113 6.95455 6.63505 6.95455C7.63642 6.95455 8.43429 7.95124 8.4194 9.15682C8.4194 10.3692 7.62897 11.3577 6.63505 11.3577ZM13.2314 11.3577C12.2536 11.3577 11.4471 10.3692 11.4471 9.15682C11.4471 7.94305 12.2375 6.95455 13.2314 6.95455C14.2328 6.95455 15.0319 7.95124 15.0158 9.15682C15.0158 10.3692 14.2328 11.3577 13.2314 11.3577Z" fill="#162728"/>
</svg>
