<svg width="19" height="17" viewBox="0 0 19 17" fill="none" xmlns="http://www.w3.org/2000/svg">
<path fill-rule="evenodd" clip-rule="evenodd" d="M18.154 0.625274L5.22058 13.5941L5.20423 15.6814C5.2003 16.223 5.52999 16.711 6.03432 16.9092C6.538 17.1074 7.11167 16.9746 7.47733 16.5749L9.35077 14.5295L14.1233 16.1092C14.4824 16.2276 14.8755 16.1851 15.2006 15.9928C15.5264 15.8004 15.7521 15.476 15.8208 15.1044L18.3248 1.54564C18.3843 1.2225 18.3195 0.89543 18.154 0.625274ZM5.05902 12.8294L17.6837 0.170001C17.2952 -0.050441 16.8163 -0.0582833 16.4173 0.156925C13.1218 1.93485 3.96988 6.87353 0.686803 8.64491C0.245266 8.88301 -0.0209478 9.35333 0.00129264 9.85504C0.0235331 10.3561 0.330964 10.8003 0.792125 10.9985L5.05902 12.8294Z" fill="#162728"/>
</svg>
